<?xml version="1.0" encoding="UTF-8"?>
<svg version="1.1" xmlns="http://www.w3.org/2000/svg" width="286" height="286">
<path d="M0 0 C1.2820784 -0.00143509 1.2820784 -0.00143509 2.59005737 -0.00289917 C4.37986323 -0.00357384 6.16967163 -0.00176989 7.95947266 0.00244141 C10.68006935 0.00781325 13.40050199 0.00246516 16.12109375 -0.00390625 C17.87239619 -0.0032456 19.62369853 -0.00196471 21.375 0 C22.17729034 -0.00202423 22.97958069 -0.00404846 23.80618286 -0.00613403 C37.47183367 0.04995867 37.47183367 0.04995867 39.5546875 2.1328125 C40.90215834 2.36356332 42.25846315 2.54434313 43.6171875 2.6953125 C44.9165625 2.8396875 46.2159375 2.9840625 47.5546875 3.1328125 C47.5546875 3.7928125 47.5546875 4.4528125 47.5546875 5.1328125 C49.5346875 5.1328125 51.5146875 5.1328125 53.5546875 5.1328125 C53.5546875 5.7928125 53.5546875 6.4528125 53.5546875 7.1328125 C55.2046875 7.1328125 56.8546875 7.1328125 58.5546875 7.1328125 C58.5546875 7.7928125 58.5546875 8.4528125 58.5546875 9.1328125 C59.8746875 9.1328125 61.1946875 9.1328125 62.5546875 9.1328125 C62.5546875 9.7928125 62.5546875 10.4528125 62.5546875 11.1328125 C63.8746875 11.1328125 65.1946875 11.1328125 66.5546875 11.1328125 C66.5546875 11.7928125 66.5546875 12.4528125 66.5546875 13.1328125 C67.8746875 13.1328125 69.1946875 13.1328125 70.5546875 13.1328125 C70.5546875 13.7928125 70.5546875 14.4528125 70.5546875 15.1328125 C71.8746875 15.1328125 73.1946875 15.1328125 74.5546875 15.1328125 C74.5546875 15.7928125 74.5546875 16.4528125 74.5546875 17.1328125 C75.5446875 17.1328125 76.5346875 17.1328125 77.5546875 17.1328125 C77.5546875 17.7928125 77.5546875 18.4528125 77.5546875 19.1328125 C78.2146875 19.1328125 78.8746875 19.1328125 79.5546875 19.1328125 C79.5546875 19.7928125 79.5546875 20.4528125 79.5546875 21.1328125 C81.5346875 21.4628125 83.5146875 21.7928125 85.5546875 22.1328125 C85.5546875 22.7928125 85.5546875 23.4528125 85.5546875 24.1328125 C86.8746875 24.1328125 88.1946875 24.1328125 89.5546875 24.1328125 C89.5546875 24.7928125 89.5546875 25.4528125 89.5546875 26.1328125 C90.2146875 26.1328125 90.8746875 26.1328125 91.5546875 26.1328125 C91.5546875 26.7928125 91.5546875 27.4528125 91.5546875 28.1328125 C92.2146875 28.1328125 92.8746875 28.1328125 93.5546875 28.1328125 C93.5546875 28.7928125 93.5546875 29.4528125 93.5546875 30.1328125 C94.2146875 30.1328125 94.8746875 30.1328125 95.5546875 30.1328125 C95.5546875 30.7928125 95.5546875 31.4528125 95.5546875 32.1328125 C96.5446875 32.1328125 97.5346875 32.1328125 98.5546875 32.1328125 C99.5446875 35.1028125 99.5446875 35.1028125 100.5546875 38.1328125 C101.2146875 38.1328125 101.8746875 38.1328125 102.5546875 38.1328125 C102.5546875 38.7928125 102.5546875 39.4528125 102.5546875 40.1328125 C103.2146875 40.1328125 103.8746875 40.1328125 104.5546875 40.1328125 C104.5546875 40.7928125 104.5546875 41.4528125 104.5546875 42.1328125 C105.2146875 42.1328125 105.8746875 42.1328125 106.5546875 42.1328125 C106.5546875 42.7928125 106.5546875 43.4528125 106.5546875 44.1328125 C107.8746875 44.4628125 109.1946875 44.7928125 110.5546875 45.1328125 C110.5546875 45.7928125 110.5546875 46.4528125 110.5546875 47.1328125 C111.2146875 47.1328125 111.8746875 47.1328125 112.5546875 47.1328125 C112.5546875 47.7928125 112.5546875 48.4528125 112.5546875 49.1328125 C113.2146875 49.1328125 113.8746875 49.1328125 114.5546875 49.1328125 C114.5546875 49.7928125 114.5546875 50.4528125 114.5546875 51.1328125 C115.2146875 51.1328125 115.8746875 51.1328125 116.5546875 51.1328125 C116.5546875 52.4528125 116.5546875 53.7728125 116.5546875 55.1328125 C117.2146875 55.1328125 117.8746875 55.1328125 118.5546875 55.1328125 C120.58904281 58.86246389 121.5546875 60.80186292 121.5546875 65.1328125 C122.2146875 65.1328125 122.8746875 65.1328125 123.5546875 65.1328125 C123.5546875 66.1228125 123.5546875 67.1128125 123.5546875 68.1328125 C124.2146875 68.1328125 124.8746875 68.1328125 125.5546875 68.1328125 C125.5546875 69.4528125 125.5546875 70.7728125 125.5546875 72.1328125 C126.2146875 72.1328125 126.8746875 72.1328125 127.5546875 72.1328125 C127.5546875 73.4528125 127.5546875 74.7728125 127.5546875 76.1328125 C128.2146875 76.1328125 128.8746875 76.1328125 129.5546875 76.1328125 C129.5546875 77.4528125 129.5546875 78.7728125 129.5546875 80.1328125 C130.2146875 80.1328125 130.8746875 80.1328125 131.5546875 80.1328125 C131.5546875 81.4528125 131.5546875 82.7728125 131.5546875 84.1328125 C132.2146875 84.1328125 132.8746875 84.1328125 133.5546875 84.1328125 C134.97727562 87.95601807 135.79511026 91.04562555 135.5546875 95.1328125 C136.2146875 95.1328125 136.8746875 95.1328125 137.5546875 95.1328125 C137.5546875 98.4328125 137.5546875 101.7328125 137.5546875 105.1328125 C138.2146875 105.1328125 138.8746875 105.1328125 139.5546875 105.1328125 C139.61527344 105.98746094 139.67585938 106.84210938 139.73828125 107.72265625 C139.82207031 108.82738281 139.90585937 109.93210937 139.9921875 111.0703125 C140.07339844 112.17246094 140.15460938 113.27460937 140.23828125 114.41015625 C140.25886834 117.04391153 140.25886834 117.04391153 141.5546875 118.1328125 C141.64206395 119.98650861 141.66166903 121.84348791 141.65234375 123.69921875 C141.64912109 124.82392578 141.64589844 125.94863281 141.64257812 127.10742188 C141.63419922 128.29142578 141.62582031 129.47542969 141.6171875 130.6953125 C141.61267578 131.88318359 141.60816406 133.07105469 141.60351562 134.29492188 C141.59168425 137.24093476 141.57520037 140.18684931 141.5546875 143.1328125 C140.8946875 143.1328125 140.2346875 143.1328125 139.5546875 143.1328125 C139.56628906 143.98746094 139.57789063 144.84210938 139.58984375 145.72265625 C139.60337891 147.37974609 139.60337891 147.37974609 139.6171875 149.0703125 C139.62878906 150.17246094 139.64039063 151.27460938 139.65234375 152.41015625 C139.5546875 155.1328125 139.5546875 155.1328125 138.5546875 156.1328125 C138.32393668 157.48028334 138.14315687 158.83658815 137.9921875 160.1953125 C137.8478125 161.4946875 137.7034375 162.7940625 137.5546875 164.1328125 C136.8946875 164.1328125 136.2346875 164.1328125 135.5546875 164.1328125 C135.6165625 165.6796875 135.6165625 165.6796875 135.6796875 167.2578125 C135.55893601 171.00110877 134.90596732 173.67015797 133.5546875 177.1328125 C132.8946875 177.1328125 132.2346875 177.1328125 131.5546875 177.1328125 C131.5546875 178.4528125 131.5546875 179.7728125 131.5546875 181.1328125 C130.8946875 181.1328125 130.2346875 181.1328125 129.5546875 181.1328125 C129.5546875 182.4528125 129.5546875 183.7728125 129.5546875 185.1328125 C128.8946875 185.1328125 128.2346875 185.1328125 127.5546875 185.1328125 C127.5546875 186.4528125 127.5546875 187.7728125 127.5546875 189.1328125 C126.8946875 189.1328125 126.2346875 189.1328125 125.5546875 189.1328125 C125.5546875 190.4528125 125.5546875 191.7728125 125.5546875 193.1328125 C124.8946875 193.1328125 124.2346875 193.1328125 123.5546875 193.1328125 C123.5546875 194.4528125 123.5546875 195.7728125 123.5546875 197.1328125 C122.8946875 197.1328125 122.2346875 197.1328125 121.5546875 197.1328125 C121.2246875 198.7828125 120.8946875 200.4328125 120.5546875 202.1328125 C119.8946875 202.1328125 119.2346875 202.1328125 118.5546875 202.1328125 C118.5546875 203.4528125 118.5546875 204.7728125 118.5546875 206.1328125 C117.8946875 206.1328125 117.2346875 206.1328125 116.5546875 206.1328125 C116.5546875 206.7928125 116.5546875 207.4528125 116.5546875 208.1328125 C115.8946875 208.1328125 115.2346875 208.1328125 114.5546875 208.1328125 C114.4103125 208.7515625 114.2659375 209.3703125 114.1171875 210.0078125 C113.5546875 212.1328125 113.5546875 212.1328125 112.5546875 214.1328125 C111.8946875 214.1328125 111.2346875 214.1328125 110.5546875 214.1328125 C110.5546875 214.7928125 110.5546875 215.4528125 110.5546875 216.1328125 C109.8946875 216.1328125 109.2346875 216.1328125 108.5546875 216.1328125 C108.5546875 216.7928125 108.5546875 217.4528125 108.5546875 218.1328125 C105.09314904 221.1328125 105.09314904 221.1328125 102.5546875 221.1328125 C102.5546875 221.7928125 102.5546875 222.4528125 102.5546875 223.1328125 C101.8946875 223.1328125 101.2346875 223.1328125 100.5546875 223.1328125 C100.2453125 223.7515625 99.9359375 224.3703125 99.6171875 225.0078125 C98.9296875 226.3828125 98.2421875 227.7578125 97.5546875 229.1328125 C96.8946875 229.1328125 96.2346875 229.1328125 95.5546875 229.1328125 C95.5546875 229.7928125 95.5546875 230.4528125 95.5546875 231.1328125 C94.8946875 231.1328125 94.2346875 231.1328125 93.5546875 231.1328125 C93.5546875 231.7928125 93.5546875 232.4528125 93.5546875 233.1328125 C90.5846875 234.1228125 90.5846875 234.1228125 87.5546875 235.1328125 C87.5546875 235.7928125 87.5546875 236.4528125 87.5546875 237.1328125 C86.8946875 237.1328125 86.2346875 237.1328125 85.5546875 237.1328125 C85.5546875 237.7928125 85.5546875 238.4528125 85.5546875 239.1328125 C84.2346875 239.1328125 82.9146875 239.1328125 81.5546875 239.1328125 C81.5546875 239.7928125 81.5546875 240.4528125 81.5546875 241.1328125 C79.9046875 241.4628125 78.2546875 241.7928125 76.5546875 242.1328125 C76.5546875 242.7928125 76.5546875 243.4528125 76.5546875 244.1328125 C75.2346875 244.1328125 73.9146875 244.1328125 72.5546875 244.1328125 C72.5546875 244.7928125 72.5546875 245.4528125 72.5546875 246.1328125 C71.2346875 246.1328125 69.9146875 246.1328125 68.5546875 246.1328125 C68.5546875 246.7928125 68.5546875 247.4528125 68.5546875 248.1328125 C67.2346875 248.1328125 65.9146875 248.1328125 64.5546875 248.1328125 C64.5546875 248.7928125 64.5546875 249.4528125 64.5546875 250.1328125 C63.2346875 250.1328125 61.9146875 250.1328125 60.5546875 250.1328125 C60.5546875 250.7928125 60.5546875 251.4528125 60.5546875 252.1328125 C59.2346875 252.1328125 57.9146875 252.1328125 56.5546875 252.1328125 C56.5546875 252.7928125 56.5546875 253.4528125 56.5546875 254.1328125 C52.05115488 255.89028864 48.37828939 256.32575658 43.5546875 256.1328125 C43.5546875 256.7928125 43.5546875 257.4528125 43.5546875 258.1328125 C40.9146875 258.1328125 38.2746875 258.1328125 35.5546875 258.1328125 C35.5546875 258.7928125 35.5546875 259.4528125 35.5546875 260.1328125 C31.2646875 260.1328125 26.9746875 260.1328125 22.5546875 260.1328125 C22.5546875 260.7928125 22.5546875 261.4528125 22.5546875 262.1328125 C18.42970212 262.16173635 14.30474265 262.17958517 10.1796875 262.1953125 C9.0040625 262.20369141 7.8284375 262.21207031 6.6171875 262.22070312 C4.93496094 262.22553711 4.93496094 262.22553711 3.21875 262.23046875 C2.18186035 262.23570557 1.1449707 262.24094238 0.07666016 262.24633789 C-2.4453125 262.1328125 -2.4453125 262.1328125 -4.4453125 261.1328125 C-6.31588041 260.905311 -8.19217208 260.72318439 -10.0703125 260.5703125 C-11.07320313 260.48652344 -12.07609375 260.40273438 -13.109375 260.31640625 C-13.88023438 260.25582031 -14.65109375 260.19523437 -15.4453125 260.1328125 C-15.4453125 259.4728125 -15.4453125 258.8128125 -15.4453125 258.1328125 C-16.02539062 258.15601563 -16.60546875 258.17921875 -17.203125 258.203125 C-22.05942416 258.31531673 -25.87463645 258.00796165 -30.4453125 256.1328125 C-30.4453125 255.4728125 -30.4453125 254.8128125 -30.4453125 254.1328125 C-32.4253125 254.1328125 -34.4053125 254.1328125 -36.4453125 254.1328125 C-36.4453125 253.4728125 -36.4453125 252.8128125 -36.4453125 252.1328125 C-37.7653125 252.1328125 -39.0853125 252.1328125 -40.4453125 252.1328125 C-40.4453125 251.4728125 -40.4453125 250.8128125 -40.4453125 250.1328125 C-41.7653125 250.1328125 -43.0853125 250.1328125 -44.4453125 250.1328125 C-44.4453125 249.4728125 -44.4453125 248.8128125 -44.4453125 248.1328125 C-46.0953125 248.1328125 -47.7453125 248.1328125 -49.4453125 248.1328125 C-49.4453125 247.4728125 -49.4453125 246.8128125 -49.4453125 246.1328125 C-50.4353125 246.1328125 -51.4253125 246.1328125 -52.4453125 246.1328125 C-52.4453125 245.4728125 -52.4453125 244.8128125 -52.4453125 244.1328125 C-53.4353125 244.1328125 -54.4253125 244.1328125 -55.4453125 244.1328125 C-55.4453125 243.4728125 -55.4453125 242.8128125 -55.4453125 242.1328125 C-57.085 241.9471875 -57.085 241.9471875 -58.7578125 241.7578125 C-62.4453125 241.1328125 -62.4453125 241.1328125 -65.4453125 239.1328125 C-65.4453125 238.4728125 -65.4453125 237.8128125 -65.4453125 237.1328125 C-66.7653125 237.1328125 -68.0853125 237.1328125 -69.4453125 237.1328125 C-69.4453125 236.4728125 -69.4453125 235.8128125 -69.4453125 235.1328125 C-70.1053125 235.1328125 -70.7653125 235.1328125 -71.4453125 235.1328125 C-71.4453125 234.4728125 -71.4453125 233.8128125 -71.4453125 233.1328125 C-72.1053125 233.1328125 -72.7653125 233.1328125 -73.4453125 233.1328125 C-73.4453125 232.4728125 -73.4453125 231.8128125 -73.4453125 231.1328125 C-74.1053125 231.1328125 -74.7653125 231.1328125 -75.4453125 231.1328125 C-75.7753125 229.8128125 -76.1053125 228.4928125 -76.4453125 227.1328125 C-77.1053125 227.1328125 -77.7653125 227.1328125 -78.4453125 227.1328125 C-78.4453125 226.4728125 -78.4453125 225.8128125 -78.4453125 225.1328125 C-79.1053125 225.1328125 -79.7653125 225.1328125 -80.4453125 225.1328125 C-80.4453125 224.4728125 -80.4453125 223.8128125 -80.4453125 223.1328125 C-81.7653125 223.1328125 -83.0853125 223.1328125 -84.4453125 223.1328125 C-84.4453125 222.4728125 -84.4453125 221.8128125 -84.4453125 221.1328125 C-85.1053125 221.1328125 -85.7653125 221.1328125 -86.4453125 221.1328125 C-86.4453125 220.4728125 -86.4453125 219.8128125 -86.4453125 219.1328125 C-87.1053125 219.1328125 -87.7653125 219.1328125 -88.4453125 219.1328125 C-88.4453125 218.1428125 -88.4453125 217.1528125 -88.4453125 216.1328125 C-89.1053125 216.1328125 -89.7653125 216.1328125 -90.4453125 216.1328125 C-90.4453125 215.4728125 -90.4453125 214.8128125 -90.4453125 214.1328125 C-91.1053125 214.1328125 -91.7653125 214.1328125 -92.4453125 214.1328125 C-92.4453125 213.4728125 -92.4453125 212.8128125 -92.4453125 212.1328125 C-93.1053125 212.1328125 -93.7653125 212.1328125 -94.4453125 212.1328125 C-94.4453125 211.4728125 -94.4453125 210.8128125 -94.4453125 210.1328125 C-95.1053125 210.1328125 -95.7653125 210.1328125 -96.4453125 210.1328125 C-96.4453125 208.8128125 -96.4453125 207.4928125 -96.4453125 206.1328125 C-97.1053125 206.1328125 -97.7653125 206.1328125 -98.4453125 206.1328125 C-98.7753125 204.1528125 -99.1053125 202.1728125 -99.4453125 200.1328125 C-100.1053125 200.1328125 -100.7653125 200.1328125 -101.4453125 200.1328125 C-101.4453125 199.4728125 -101.4453125 198.8128125 -101.4453125 198.1328125 C-102.1053125 198.1328125 -102.7653125 198.1328125 -103.4453125 198.1328125 C-103.4453125 197.1428125 -103.4453125 196.1528125 -103.4453125 195.1328125 C-104.1053125 195.1328125 -104.7653125 195.1328125 -105.4453125 195.1328125 C-105.4453125 193.8128125 -105.4453125 192.4928125 -105.4453125 191.1328125 C-106.1053125 191.1328125 -106.7653125 191.1328125 -107.4453125 191.1328125 C-107.4453125 189.8128125 -107.4453125 188.4928125 -107.4453125 187.1328125 C-108.1053125 187.1328125 -108.7653125 187.1328125 -109.4453125 187.1328125 C-109.4453125 185.8128125 -109.4453125 184.4928125 -109.4453125 183.1328125 C-110.1053125 183.1328125 -110.7653125 183.1328125 -111.4453125 183.1328125 C-111.4453125 181.8128125 -111.4453125 180.4928125 -111.4453125 179.1328125 C-112.1053125 179.1328125 -112.7653125 179.1328125 -113.4453125 179.1328125 C-113.65027344 178.35035156 -113.85523438 177.56789062 -114.06640625 176.76171875 C-114.33582031 175.74980469 -114.60523438 174.73789063 -114.8828125 173.6953125 C-115.14964844 172.68597656 -115.41648437 171.67664063 -115.69140625 170.63671875 C-116.20509327 168.21529249 -116.20509327 168.21529249 -117.4453125 167.1328125 C-120.1856892 155.67476954 -120.8718244 144.48171193 -120.7265625 132.73706055 C-120.69503654 130.17286675 -120.68553166 127.60929175 -120.6796875 125.04492188 C-120.57299851 102.26049851 -120.57299851 102.26049851 -118.4453125 100.1328125 C-118.3421875 98.9984375 -118.2390625 97.8640625 -118.1328125 96.6953125 C-117.56307028 91.4631798 -115.55200838 86.91452221 -113.4453125 82.1328125 C-112.7853125 82.1328125 -112.1253125 82.1328125 -111.4453125 82.1328125 C-111.4453125 80.1528125 -111.4453125 78.1728125 -111.4453125 76.1328125 C-110.7853125 76.1328125 -110.1253125 76.1328125 -109.4453125 76.1328125 C-109.4453125 74.8128125 -109.4453125 73.4928125 -109.4453125 72.1328125 C-108.7853125 72.1328125 -108.1253125 72.1328125 -107.4453125 72.1328125 C-107.3009375 71.5140625 -107.1565625 70.8953125 -107.0078125 70.2578125 C-106.4453125 68.1328125 -106.4453125 68.1328125 -105.4453125 66.1328125 C-104.7853125 66.1328125 -104.1253125 66.1328125 -103.4453125 66.1328125 C-103.4453125 65.1428125 -103.4453125 64.1528125 -103.4453125 63.1328125 C-102.7853125 63.1328125 -102.1253125 63.1328125 -101.4453125 63.1328125 C-101.4453125 61.8128125 -101.4453125 60.4928125 -101.4453125 59.1328125 C-100.7853125 59.1328125 -100.1253125 59.1328125 -99.4453125 59.1328125 C-99.1359375 58.1840625 -98.8265625 57.2353125 -98.5078125 56.2578125 C-97.4453125 53.1328125 -97.4453125 53.1328125 -96.4453125 51.1328125 C-95.7853125 51.1328125 -95.1253125 51.1328125 -94.4453125 51.1328125 C-94.4453125 50.4728125 -94.4453125 49.8128125 -94.4453125 49.1328125 C-93.7853125 49.1328125 -93.1253125 49.1328125 -92.4453125 49.1328125 C-92.3421875 48.4934375 -92.2390625 47.8540625 -92.1328125 47.1953125 C-91.9059375 46.5146875 -91.6790625 45.8340625 -91.4453125 45.1328125 C-89.9603125 44.6378125 -89.9603125 44.6378125 -88.4453125 44.1328125 C-88.4453125 43.4728125 -88.4453125 42.8128125 -88.4453125 42.1328125 C-87.7853125 42.1328125 -87.1253125 42.1328125 -86.4453125 42.1328125 C-86.4453125 41.4728125 -86.4453125 40.8128125 -86.4453125 40.1328125 C-85.7853125 40.1328125 -85.1253125 40.1328125 -84.4453125 40.1328125 C-84.4453125 39.4728125 -84.4453125 38.8128125 -84.4453125 38.1328125 C-83.7853125 38.1328125 -83.1253125 38.1328125 -82.4453125 38.1328125 C-82.4453125 37.4728125 -82.4453125 36.8128125 -82.4453125 36.1328125 C-81.7853125 36.1328125 -81.1253125 36.1328125 -80.4453125 36.1328125 C-80.4453125 35.4728125 -80.4453125 34.8128125 -80.4453125 34.1328125 C-79.7853125 34.1328125 -79.1253125 34.1328125 -78.4453125 34.1328125 C-78.4453125 33.4728125 -78.4453125 32.8128125 -78.4453125 32.1328125 C-77.7853125 32.1328125 -77.1253125 32.1328125 -76.4453125 32.1328125 C-75.7853125 30.8128125 -75.1253125 29.4928125 -74.4453125 28.1328125 C-73.4553125 28.1328125 -72.4653125 28.1328125 -71.4453125 28.1328125 C-71.4453125 27.4728125 -71.4453125 26.8128125 -71.4453125 26.1328125 C-70.7853125 26.1328125 -70.1253125 26.1328125 -69.4453125 26.1328125 C-69.4453125 25.4728125 -69.4453125 24.8128125 -69.4453125 24.1328125 C-66.53982368 22.09111765 -65.04389204 21.1328125 -61.4453125 21.1328125 C-61.4453125 20.4728125 -61.4453125 19.8128125 -61.4453125 19.1328125 C-60.1253125 19.1328125 -58.8053125 19.1328125 -57.4453125 19.1328125 C-57.4453125 18.4728125 -57.4453125 17.8128125 -57.4453125 17.1328125 C-56.4553125 17.1328125 -55.4653125 17.1328125 -54.4453125 17.1328125 C-54.4453125 16.4728125 -54.4453125 15.8128125 -54.4453125 15.1328125 C-53.7853125 15.1328125 -53.1253125 15.1328125 -52.4453125 15.1328125 C-52.4453125 14.4728125 -52.4453125 13.8128125 -52.4453125 13.1328125 C-51.1253125 13.1328125 -49.8053125 13.1328125 -48.4453125 13.1328125 C-48.4453125 12.4728125 -48.4453125 11.8128125 -48.4453125 11.1328125 C-47.1253125 11.1328125 -45.8053125 11.1328125 -44.4453125 11.1328125 C-44.4453125 10.4728125 -44.4453125 9.8128125 -44.4453125 9.1328125 C-42.4653125 9.1328125 -40.4853125 9.1328125 -38.4453125 9.1328125 C-38.4453125 8.4728125 -38.4453125 7.8128125 -38.4453125 7.1328125 C-37.1253125 7.1328125 -35.8053125 7.1328125 -34.4453125 7.1328125 C-34.4453125 6.4728125 -34.4453125 5.8128125 -34.4453125 5.1328125 C-23.20270465 1.09700455 -11.88082791 -0.03012814 0 0 Z M-8.0078125 73.1328125 C-8.83410156 73.3184375 -9.66039063 73.5040625 -10.51171875 73.6953125 C-11.46884766 73.911875 -11.46884766 73.911875 -12.4453125 74.1328125 C-12.28683838 74.65391602 -12.12836426 75.17501953 -11.96508789 75.71191406 C-11.30552348 78.78389182 -11.22533977 81.72620997 -11.12890625 84.8671875 C-11.08701172 86.16269531 -11.04511719 87.45820312 -11.00195312 88.79296875 C-10.96214579 90.15624726 -10.92243344 91.51952856 -10.8828125 92.8828125 C-10.83958976 94.26173125 -10.79597429 95.64063776 -10.75195312 97.01953125 C-10.64587292 100.3905244 -10.543814 103.76159076 -10.4453125 107.1328125 C-10.1153125 106.4728125 -9.7853125 105.8128125 -9.4453125 105.1328125 C-8.4553125 105.1328125 -7.4653125 105.1328125 -6.4453125 105.1328125 C-6.4453125 106.4528125 -6.4453125 107.7728125 -6.4453125 109.1328125 C-5.7853125 109.1328125 -5.1253125 109.1328125 -4.4453125 109.1328125 C-4.27747869 104.54952112 -4.1112463 99.96617303 -3.9453125 95.3828125 C-3.89761719 94.08085938 -3.84992188 92.77890625 -3.80078125 91.4375 C-3.75566406 90.18710938 -3.71054688 88.93671875 -3.6640625 87.6484375 C-3.62216797 86.49633789 -3.58027344 85.34423828 -3.53710938 84.15722656 C-3.46606779 81.81663316 -3.4453125 79.47448378 -3.4453125 77.1328125 C-3.14126572 75.46055521 -2.81402338 73.79201146 -2.4453125 72.1328125 C-4.33129311 72.1328125 -6.17663612 72.72015303 -8.0078125 73.1328125 Z M35.5546875 74.1328125 C35.8846875 75.1228125 36.2146875 76.1128125 36.5546875 77.1328125 C36.8846875 76.1428125 37.2146875 75.1528125 37.5546875 74.1328125 C36.8946875 74.1328125 36.2346875 74.1328125 35.5546875 74.1328125 Z M18.5546875 91.1328125 C18.5546875 91.7928125 18.5546875 92.4528125 18.5546875 93.1328125 C19.2146875 93.1328125 19.8746875 93.1328125 20.5546875 93.1328125 C20.5546875 92.4728125 20.5546875 91.8128125 20.5546875 91.1328125 C19.8946875 91.1328125 19.2346875 91.1328125 18.5546875 91.1328125 Z M16.5546875 93.1328125 C16.5546875 93.7928125 16.5546875 94.4528125 16.5546875 95.1328125 C15.8946875 95.1328125 15.2346875 95.1328125 14.5546875 95.1328125 C12.23214569 98.80662842 12.29773766 101.96890811 12.28344727 106.25292969 C12.27560715 107.31717667 12.27560715 107.31717667 12.26760864 108.40292358 C12.25738473 109.94049626 12.25159104 111.47810339 12.24972725 113.01570892 C12.24605603 115.45474788 12.22930723 117.89338295 12.20896912 120.33233643 C12.15364151 127.26575177 12.12294263 134.19922716 12.09838867 141.1328125 C12.08245078 145.37804616 12.05216341 149.62299477 12.01362419 153.86808014 C12.00202513 155.48026741 11.99604429 157.09250581 11.99594307 158.7047348 C11.99461408 174.2449741 11.99461408 174.2449741 8.5546875 181.1328125 C10.0396875 180.6378125 10.0396875 180.6378125 11.5546875 180.1328125 C12.28792546 178.11772892 12.28792546 178.11772892 12.5546875 176.1328125 C13.2146875 176.1328125 13.8746875 176.1328125 14.5546875 176.1328125 C19.34976834 167.35624684 19.02520096 158.68544091 18.8046875 149.0078125 C18.7845818 147.46356496 18.76633826 145.919292 18.75 144.375 C18.70634953 140.6270677 18.63754994 136.88010711 18.5546875 133.1328125 C20.0396875 132.6378125 20.0396875 132.6378125 21.5546875 132.1328125 C20.8946875 131.8028125 20.2346875 131.4728125 19.5546875 131.1328125 C19.2246875 118.5928125 18.8946875 106.0528125 18.5546875 93.1328125 C17.8946875 93.1328125 17.2346875 93.1328125 16.5546875 93.1328125 Z M-10.4453125 116.1328125 C-10.4453125 120.0928125 -10.4453125 124.0528125 -10.4453125 128.1328125 C-9.4553125 128.1328125 -8.4653125 128.1328125 -7.4453125 128.1328125 C-7.4453125 127.4728125 -7.4453125 126.8128125 -7.4453125 126.1328125 C-5.7953125 126.1328125 -4.1453125 126.1328125 -2.4453125 126.1328125 C-3.1053125 122.8328125 -3.7653125 119.5328125 -4.4453125 116.1328125 C-6.4253125 116.1328125 -8.4053125 116.1328125 -10.4453125 116.1328125 Z M31.5546875 132.1328125 C35.5546875 133.1328125 35.5546875 133.1328125 35.5546875 133.1328125 Z M-4.4453125 135.1328125 C-4.4453125 135.7928125 -4.4453125 136.4528125 -4.4453125 137.1328125 C-6.4253125 137.1328125 -8.4053125 137.1328125 -10.4453125 137.1328125 C-10.4453125 141.7528125 -10.4453125 146.3728125 -10.4453125 151.1328125 C-7.8053125 151.1328125 -5.1653125 151.1328125 -2.4453125 151.1328125 C-3.1053125 148.4928125 -3.7653125 145.8528125 -4.4453125 143.1328125 C-3.7853125 142.8028125 -3.1253125 142.4728125 -2.4453125 142.1328125 C-2.6309375 141.5346875 -2.8165625 140.9365625 -3.0078125 140.3203125 C-3.4453125 138.1328125 -3.4453125 138.1328125 -2.4453125 135.1328125 C-3.1053125 135.1328125 -3.7653125 135.1328125 -4.4453125 135.1328125 Z M106.5546875 153.1328125 C106.5546875 154.1228125 106.5546875 155.1128125 106.5546875 156.1328125 C107.2146875 156.1328125 107.8746875 156.1328125 108.5546875 156.1328125 C108.5546875 155.1428125 108.5546875 154.1528125 108.5546875 153.1328125 C107.8946875 153.1328125 107.2346875 153.1328125 106.5546875 153.1328125 Z M-92.4453125 154.1328125 C-90.4653125 155.1228125 -90.4653125 155.1228125 -88.4453125 156.1328125 C-88.4453125 155.4728125 -88.4453125 154.8128125 -88.4453125 154.1328125 C-89.7653125 154.1328125 -91.0853125 154.1328125 -92.4453125 154.1328125 Z " fill="#030302" transform="translate(131.4453125,10.8671875)"/>
<path d="M0 0 C0.66 0 1.32 0 2 0 C2.33 1.65 2.66 3.3 3 5 C3.99 5 4.98 5 6 5 C6 6.32 6 7.64 6 9 C6.66 9 7.32 9 8 9 C8 11.31 8 13.62 8 16 C6.02 16 4.04 16 2 16 C2 19.96 2 23.92 2 28 C3.32 27.67 4.64 27.34 6 27 C9 29 9 29 9.6875 32.125 C9.790625 33.07375 9.89375 34.0225 10 35 C9.34 35 8.68 35 8 35 C8 35.66 8 36.32 8 37 C6.02 37 4.04 37 2 37 C2 41.62 2 46.24 2 51 C6.62 50.67 11.24 50.34 16 50 C15.67 51.32 15.34 52.64 15 54 C12.20865148 54.19425873 9.41716313 54.38069517 6.625 54.5625 C5.43390625 54.64661133 5.43390625 54.64661133 4.21875 54.73242188 C-1.7734375 55.11328125 -1.7734375 55.11328125 -4 54 C-3.36843005 48.94744036 -1.86540627 44.70406799 0 40 C-1.32 39.67 -2.64 39.34 -4 39 C-4 39.66 -4 40.32 -4 41 C-5.485 41.495 -5.485 41.495 -7 42 C-9.49451413 44.49451413 -9.98118639 45.67389735 -10.1875 49.25 C-10.125625 50.1575 -10.06375 51.065 -10 52 C-10.99 52 -11.98 52 -13 52 C-13.33 52.99 -13.66 53.98 -14 55 C-14.99 54.67 -15.98 54.34 -17 54 C-17 53.34 -17 52.68 -17 52 C-17.66 52 -18.32 52 -19 52 C-19 52.66 -19 53.32 -19 54 C-19.66 54 -20.32 54 -21 54 C-20.67 51.36 -20.34 48.72 -20 46 C-19.01 46 -18.02 46 -17 46 C-17 46.66 -17 47.32 -17 48 C-15.29159719 46.36587557 -14.06546953 45.13093906 -13 43 C-13.66 43 -14.32 43 -15 43 C-14.42141121 39.0945257 -12.73020952 36.80399897 -10 34 C-6.75 32.6875 -6.75 32.6875 -4 32 C-4 31.34 -4 30.68 -4 30 C-3.01 30 -2.02 30 -1 30 C-0.67 20.1 -0.34 10.2 0 0 Z " fill="#14140C" transform="translate(119,111)"/>
<path d="M0 0 C5.94 0 11.88 0 18 0 C18.33 1.32 18.66 2.64 19 4 C13.72 4 8.44 4 3 4 C3 14.23 3 24.46 3 35 C1.02 35.495 1.02 35.495 -1 36 C-0.67 24.12 -0.34 12.24 0 0 Z " fill="#151508" transform="translate(150,144)"/>
<path d="M0 0 C0.66 0 1.32 0 2 0 C1.67 1.65 1.34 3.3 1 5 C-0.98 5.33 -2.96 5.66 -5 6 C-5 6.99 -5 7.98 -5 9 C-6.32 8.67 -7.64 8.34 -9 8 C-9.33 9.32 -9.66 10.64 -10 12 C-10.99 12 -11.98 12 -13 12 C-13 12.66 -13 13.32 -13 14 C-13.66 14 -14.32 14 -15 14 C-15 14.66 -15 15.32 -15 16 C-15.66 16 -16.32 16 -17 16 C-17 16.66 -17 17.32 -17 18 C-18.64453125 19.40234375 -18.64453125 19.40234375 -20.8125 20.9375 C-22.89180372 22.41838844 -24.80884806 23.80510915 -26.59765625 25.62890625 C-28 27 -28 27 -30.625 28 C-31.40875 28.33 -32.1925 28.66 -33 29 C-33.33 29.99 -33.66 30.98 -34 32 C-34.33 31.01 -34.66 30.02 -35 29 C-33.68 28.34 -32.36 27.68 -31 27 C-31 26.34 -31 25.68 -31 25 C-30.34 25 -29.68 25 -29 25 C-29 24.34 -29 23.68 -29 23 C-28.34 23 -27.68 23 -27 23 C-27 22.34 -27 21.68 -27 21 C-26.34 21 -25.68 21 -25 21 C-25 20.34 -25 19.68 -25 19 C-24.34 19 -23.68 19 -23 19 C-23 18.34 -23 17.68 -23 17 C-22.34 17 -21.68 17 -21 17 C-21 16.34 -21 15.68 -21 15 C-20.34 15 -19.68 15 -19 15 C-18.34 13.68 -17.68 12.36 -17 11 C-16.01 11 -15.02 11 -14 11 C-14 10.34 -14 9.68 -14 9 C-13.34 9 -12.68 9 -12 9 C-12 8.34 -12 7.68 -12 7 C-9.09451118 4.95830515 -7.59857954 4 -4 4 C-4 3.34 -4 2.68 -4 2 C-2.68 2 -1.36 2 0 2 C0 1.34 0 0.68 0 0 Z " fill="#212121" transform="translate(74,28)"/>
<path d="M0 0 C1.32 0.33 2.64 0.66 4 1 C4 1.99 4 2.98 4 4 C5.65 3.67 7.3 3.34 9 3 C9 3.66 9 4.32 9 5 C9.66 5 10.32 5 11 5 C10.01 8.3 9.02 11.6 8 15 C4.7 15.33 1.4 15.66 -2 16 C-2 14.02 -2 12.04 -2 10 C-3.32 9.67 -4.64 9.34 -6 9 C-6 7.68 -6 6.36 -6 5 C-2.73045798 5.56371414 -1.17424117 6.49962266 1 9 C1.99 8.67 2.98 8.34 4 8 C3.01 7.34 2.02 6.68 1 6 C0.3125 2.875 0.3125 2.875 0 0 Z " fill="#141510" transform="translate(237,157)"/>
<path d="M0 0 C0.66 0 1.32 0 2 0 C2.33 1.65 2.66 3.3 3 5 C3.99 5 4.98 5 6 5 C6 6.32 6 7.64 6 9 C6.66 9 7.32 9 8 9 C8 11.31 8 13.62 8 16 C6.02 16 4.04 16 2 16 C2.02320312 16.83144531 2.04640625 17.66289062 2.0703125 18.51953125 C2.09738281 20.14955078 2.09738281 20.14955078 2.125 21.8125 C2.14820312 22.89144531 2.17140625 23.97039062 2.1953125 25.08203125 C2 28 2 28 0 31 C-0.66 31 -1.32 31 -2 31 C-2 31.66 -2 32.32 -2 33 C-3.32 32.67 -4.64 32.34 -6 32 C-5.34 32 -4.68 32 -4 32 C-4 31.34 -4 30.68 -4 30 C-3.01 30 -2.02 30 -1 30 C-0.67 20.1 -0.34 10.2 0 0 Z " fill="#201F0A" transform="translate(119,111)"/>
<path d="M0 0 C1.28563591 -0.0049926 1.28563591 -0.0049926 2.59724426 -0.01008606 C4.39124013 -0.01510473 6.18524517 -0.01749597 7.97924805 -0.01733398 C10.71093011 -0.01953439 13.44221645 -0.03778165 16.17382812 -0.05664062 C17.92838405 -0.05957294 19.68294187 -0.06155882 21.4375 -0.0625 C22.64867744 -0.07327827 22.64867744 -0.07327827 23.88432312 -0.08427429 C28.80575517 -0.06455952 32.84929816 0.5982634 37.51953125 2.16796875 C35.51953125 4.16796875 35.51953125 4.16796875 32.45703125 4.35546875 C29.51953125 4.16796875 29.51953125 4.16796875 28.51953125 3.16796875 C25.6370048 3.00773313 22.77574598 2.90842846 19.890625 2.8515625 C18.59427879 2.82039085 18.59427879 2.82039085 17.27174377 2.78858948 C14.5002568 2.72299761 11.72867204 2.66416457 8.95703125 2.60546875 C7.08267202 2.56229267 5.20832282 2.51867869 3.33398438 2.47460938 C-1.27073211 2.36730648 -5.87554733 2.2660666 -10.48046875 2.16796875 C-10.48046875 2.82796875 -10.48046875 3.48796875 -10.48046875 4.16796875 C-17.23046875 4.29296875 -17.23046875 4.29296875 -19.48046875 3.16796875 C-19.48046875 2.50796875 -19.48046875 1.84796875 -19.48046875 1.16796875 C-12.96880486 0.42049145 -6.55307596 0.00909984 0 0 Z " fill="#2A2A2A" transform="translate(131.48046875,10.83203125)"/>
<path d="M0 0 C0 0.99 0 1.98 0 3 C-1.98 3 -3.96 3 -6 3 C-6 3.66 -6 4.32 -6 5 C-8.31 5 -10.62 5 -13 5 C-13 5.66 -13 6.32 -13 7 C-17.58994511 9.39981901 -22.03950959 11.45673632 -27 13 C-28.67163195 13.65411685 -30.34015202 14.31653318 -32 15 C-32.33 14.01 -32.66 13.02 -33 12 C-32.67 11.34 -32.34 10.68 -32 10 C-30.68 10 -29.36 10 -28 10 C-28 9.34 -28 8.68 -28 8 C-26.68 8 -25.36 8 -24 8 C-24 7.34 -24 6.68 -24 6 C-22.02 6 -20.04 6 -18 6 C-18 5.34 -18 4.68 -18 4 C-16.68 4 -15.36 4 -14 4 C-14 3.34 -14 2.68 -14 2 C-9.07262981 0.02905192 -5.21979128 -0.1799928 0 0 Z " fill="#1B1B1D" transform="translate(111,14)"/>
<path d="M0 0 C1.65 0 3.3 0 5 0 C5 0.66 5 1.32 5 2 C6.32 2 7.64 2 9 2 C9 2.66 9 3.32 9 4 C10.32 4 11.64 4 13 4 C13 4.66 13 5.32 13 6 C14.32 6 15.64 6 17 6 C17 6.66 17 7.32 17 8 C18.32 8 19.64 8 21 8 C21 8.66 21 9.32 21 10 C21.99 10 22.98 10 24 10 C24 10.66 24 11.32 24 12 C24.66 12 25.32 12 26 12 C26 12.66 26 13.32 26 14 C27.423125 14.0928125 27.423125 14.0928125 28.875 14.1875 C29.90625 14.455625 30.9375 14.72375 32 15 C33.375 17.5625 33.375 17.5625 34 20 C32.0625 19.6875 32.0625 19.6875 30 19 C29.67 18.01 29.34 17.02 29 16 C28.34 15.938125 27.68 15.87625 27 15.8125 C23.50700155 14.86647959 21.1362186 13.24844365 18.13671875 11.27734375 C14.9033563 9.34441958 11.56119085 8.20826118 8 7 C8 6.34 8 5.68 8 5 C6.68 5 5.36 5 4 5 C4 4.34 4 3.68 4 3 C2.68 3 1.36 3 0 3 C0 2.01 0 1.02 0 0 Z " fill="#151513" transform="translate(185,18)"/>
<path d="M0 0 C0.75 3.125 0.75 3.125 1 6 C0.34 6 -0.32 6 -1 6 C-1 6.66 -1 7.32 -1 8 C-2.258125 8.020625 -3.51625 8.04125 -4.8125 8.0625 C-5.52019531 8.07410156 -6.22789063 8.08570313 -6.95703125 8.09765625 C-9 8 -9 8 -12 7 C-12 7.66 -12 8.32 -12 9 C-12.99 9.33 -13.98 9.66 -15 10 C-15 9.34 -15 8.68 -15 8 C-15.99 8 -16.98 8 -18 8 C-18 7.34 -18 6.68 -18 6 C-17.01 6 -16.02 6 -15 6 C-15 5.34 -15 4.68 -15 4 C-13.68 4 -12.36 4 -11 4 C-11 3.34 -11 2.68 -11 2 C-10.34 2 -9.68 2 -9 2 C-8.67 1.01 -8.34 0.02 -8 -1 C-4.79795917 -2.43539761 -2.74593816 -2.17781303 0 0 Z " fill="#383721" transform="translate(128,140)"/>
<path d="M0 0 C3.3 0 6.6 0 10 0 C10 13.53 10 27.06 10 41 C9.34 41 8.68 41 8 41 C8 41.66 8 42.32 8 43 C7.34 43 6.68 43 6 43 C6.32597168 42.51499023 6.65194336 42.02998047 6.98779297 41.53027344 C8.44041734 37.89906289 8.24569062 34.36470959 8.1953125 30.515625 C8.1924826 29.70003113 8.18965271 28.88443726 8.18673706 28.04412842 C8.17556558 25.44593472 8.15046675 22.84808905 8.125 20.25 C8.11496627 18.48568207 8.10584111 16.72135872 8.09765625 14.95703125 C8.07563619 10.63788727 8.04112733 6.31900259 8 2 C5.69 2.33 3.38 2.66 1 3 C0.67 2.01 0.34 1.02 0 0 Z " fill="#131404" transform="translate(134,143)"/>
<path d="M0 0 C0.99 0.33 1.98 0.66 3 1 C2.34 2.32 1.68 3.64 1 5 C2.98 5.66 4.96 6.32 7 7 C7.33 8.65 7.66 10.3 8 12 C7.01 12.33 6.02 12.66 5 13 C4.26676204 15.01508358 4.26676204 15.01508358 4 17 C3.01 17 2.02 17 1 17 C1 16.34 1 15.68 1 15 C-2.57644848 13.7619986 -5.33694766 14.25073929 -9 15 C-9 13.68 -9 12.36 -9 11 C-7.35 10.67 -5.7 10.34 -4 10 C-4 9.34 -4 8.68 -4 8 C-3.34 8 -2.68 8 -2 8 C-1.34 9.98 -0.68 11.96 0 14 C0.66 14 1.32 14 2 14 C2 12.35 2 10.7 2 9 C1.34 8.67 0.68 8.34 0 8 C0 7.34 0 6.68 0 6 C-0.66 6 -1.32 6 -2 6 C-1.125 1.125 -1.125 1.125 0 0 Z " fill="#141310" transform="translate(189,222)"/>
<path d="M0 0 C2.1640625 -0.29296875 2.1640625 -0.29296875 4.625 -0.1875 C5.44226563 -0.16042969 6.25953125 -0.13335937 7.1015625 -0.10546875 C8.04128906 -0.05326172 8.04128906 -0.05326172 9 0 C9 0.66 9 1.32 9 2 C10.26457031 1.97679687 11.52914062 1.95359375 12.83203125 1.9296875 C14.4921816 1.91092874 16.15233833 1.89272865 17.8125 1.875 C19.06256836 1.84986328 19.06256836 1.84986328 20.33789062 1.82421875 C21.14033203 1.81777344 21.94277344 1.81132812 22.76953125 1.8046875 C23.50792236 1.79421387 24.24631348 1.78374023 25.00708008 1.77294922 C27 2 27 2 30 4 C27.67656444 5.16171778 26.30366684 5.12903969 23.71875 5.1328125 C22.45611328 5.13474609 22.45611328 5.13474609 21.16796875 5.13671875 C20.28753906 5.13285156 19.40710938 5.12898438 18.5 5.125 C17.61957031 5.12886719 16.73914063 5.13273437 15.83203125 5.13671875 C14.99027344 5.13542969 14.14851563 5.13414062 13.28125 5.1328125 C12.50845703 5.13168457 11.73566406 5.13055664 10.93945312 5.12939453 C9 5 9 5 7 4 C5.46331135 3.77532169 3.92031946 3.59203195 2.375 3.4375 C1.55773437 3.35371094 0.74046875 3.26992188 -0.1015625 3.18359375 C-0.72804688 3.12300781 -1.35453125 3.06242187 -2 3 C-1.34 2.01 -0.68 1.02 0 0 Z " fill="#282827" transform="translate(120,268)"/>
<path d="M0 0 C0.66 0 1.32 0 2 0 C2 10.56 2 21.12 2 32 C-1.3 32 -4.6 32 -8 32 C-8 31.01 -8 30.02 -8 29 C-5.36 29 -2.72 29 0 29 C0 19.43 0 9.86 0 0 Z " fill="#242519" transform="translate(142,110)"/>
<path d="M0 0 C0.99 0.33 1.98 0.66 3 1 C3 1.66 3 2.32 3 3 C2.34 3 1.68 3 1 3 C1 3.66 1 4.32 1 5 C-0.32 5 -1.64 5 -3 5 C-3 5.66 -3 6.32 -3 7 C-4.32 7 -5.64 7 -7 7 C-7 7.66 -7 8.32 -7 9 C-11.98229776 10.91626837 -16.72684667 11.5547115 -22 12 C-21.671875 10.078125 -21.671875 10.078125 -21 8 C-17.26602153 6.30273706 -14.07842654 5.76009256 -10 6 C-9.67 5.34 -9.34 4.68 -9 4 C-7.35 4.33 -5.7 4.66 -4 5 C-4 4.01 -4 3.02 -4 2 C-2.68 2.33 -1.36 2.66 0 3 C0 2.01 0 1.02 0 0 Z " fill="#10100F" transform="translate(195,256)"/>
<path d="M0 0 C5.28 0 10.56 0 16 0 C16 0.99 16 1.98 16 3 C14.741875 3.185625 13.48375 3.37125 12.1875 3.5625 C11.12595703 3.71912109 11.12595703 3.71912109 10.04296875 3.87890625 C8 4 8 4 5 3 C5 3.66 5 4.32 5 5 C6.32 5.33 7.64 5.66 9 6 C8.67 7.32 8.34 8.64 8 10 C5.37812506 8.95125002 4.20628639 8.35068687 2.75 5.875 C2.5025 5.25625 2.255 4.6375 2 4 C1.34 4 0.68 4 0 4 C0 2.68 0 1.36 0 0 Z " fill="#11110A" transform="translate(111,80)"/>
<path d="M0 0 C1.92823611 3.85647223 2.26282604 5.34016368 2.34375 9.46484375 C2.37339844 10.51220703 2.40304688 11.55957031 2.43359375 12.63867188 C2.45550781 13.72728516 2.47742188 14.81589844 2.5 15.9375 C2.54353813 18.0926375 2.59532994 20.24762754 2.65625 22.40234375 C2.67494141 23.35616943 2.69363281 24.30999512 2.71289062 25.29272461 C3.01821475 28.17175453 3.80558205 30.37543941 5 33 C3.35 33 1.7 33 0 33 C0 22.11 0 11.22 0 0 Z " fill="#1D1A07" transform="translate(150,109)"/>
<path d="M0 0 C0.99 0.33 1.98 0.66 3 1 C3 1.99 3 2.98 3 4 C2.01 4 1.02 4 0 4 C-0.33 4.66 -0.66 5.32 -1 6 C-4.01490557 7.00496852 -6.04181692 7.10335303 -9.1875 7.0625 C-10.08855469 7.05347656 -10.98960937 7.04445313 -11.91796875 7.03515625 C-12.60503906 7.02355469 -13.29210937 7.01195313 -14 7 C-14.33 6.01 -14.66 5.02 -15 4 C-12.69 4 -10.38 4 -8 4 C-8 3.01 -8 2.02 -8 1 C-6.35 1 -4.7 1 -3 1 C-2.67 1.66 -2.34 2.32 -2 3 C-1.34 2.01 -0.68 1.02 0 0 Z " fill="#13140C" transform="translate(163,79)"/>
<path d="M0 0 C0.66 0 1.32 0 2 0 C1.67 1.65 1.34 3.3 1 5 C-0.98 5.33 -2.96 5.66 -5 6 C-5 6.99 -5 7.98 -5 9 C-6.32 8.67 -7.64 8.34 -9 8 C-9.33 9.32 -9.66 10.64 -10 12 C-10.99 12 -11.98 12 -13 12 C-13 12.66 -13 13.32 -13 14 C-14.65 13.67 -16.3 13.34 -18 13 C-17.67 12.34 -17.34 11.68 -17 11 C-16.01 11 -15.02 11 -14 11 C-14 10.34 -14 9.68 -14 9 C-13.34 9 -12.68 9 -12 9 C-12 8.34 -12 7.68 -12 7 C-9.09451118 4.95830515 -7.59857954 4 -4 4 C-4 3.34 -4 2.68 -4 2 C-2.68 2 -1.36 2 0 2 C0 1.34 0 0.68 0 0 Z " fill="#1A1A19" transform="translate(74,28)"/>
<path d="M0 0 C0.89332031 0.30164063 1.78664062 0.60328125 2.70703125 0.9140625 C3.60808594 1.21054687 4.50914062 1.50703125 5.4375 1.8125 C6.12457031 2.05226563 6.81164062 2.29203125 7.51953125 2.5390625 C5.51953125 4.5390625 5.51953125 4.5390625 3.13671875 4.734375 C2.23179687 4.71117187 1.326875 4.68796875 0.39453125 4.6640625 C-0.97058594 4.63699219 -0.97058594 4.63699219 -2.36328125 4.609375 C-3.06195313 4.58617187 -3.760625 4.56296875 -4.48046875 4.5390625 C-4.48046875 5.1990625 -4.48046875 5.8590625 -4.48046875 6.5390625 C-6.46046875 6.5390625 -8.44046875 6.5390625 -10.48046875 6.5390625 C-10.81046875 5.5490625 -11.14046875 4.5590625 -11.48046875 3.5390625 C-9.50046875 3.5390625 -7.52046875 3.5390625 -5.48046875 3.5390625 C-5.48046875 2.8790625 -5.48046875 2.2190625 -5.48046875 1.5390625 C-2.48046875 -0.4609375 -2.48046875 -0.4609375 0 0 Z " fill="#10100F" transform="translate(158.48046875,266.4609375)"/>
<path d="M0 0 C0 0.99 0 1.98 0 3 C-0.66 3 -1.32 3 -2 3 C-2 3.66 -2 4.32 -2 5 C-3.65 5.33 -5.3 5.66 -7 6 C-7 6.66 -7 7.32 -7 8 C-8.32 8 -9.64 8 -11 8 C-11 8.66 -11 9.32 -11 10 C-12.65 10 -14.3 10 -16 10 C-16 9.01 -16 8.02 -16 7 C-14.68 7.33 -13.36 7.66 -12 8 C-12 7.34 -12 6.68 -12 6 C-10.390625 4.4921875 -10.390625 4.4921875 -8.25 2.875 C-7.55390625 2.33617187 -6.8578125 1.79734375 -6.140625 1.2421875 C-4 0 -4 0 0 0 Z " fill="#0C0C0A" transform="translate(215,247)"/>
<path d="M0 0 C0.99 0.33 1.98 0.66 3 1 C2.67 2.32 2.34 3.64 2 5 C3.32 5.66 4.64 6.32 6 7 C6 7.66 6 8.32 6 9 C4.58344207 9.0272415 3.16672955 9.04650467 1.75 9.0625 C0.56664062 9.07990234 0.56664062 9.07990234 -0.640625 9.09765625 C-2.90691002 9.00385306 -4.8288895 8.63241063 -7 8 C-7 7.34 -7 6.68 -7 6 C-6.401875 5.938125 -5.80375 5.87625 -5.1875 5.8125 C-2.12856542 4.6763243 -1.44958901 2.82669858 0 0 Z " fill="#11110F" transform="translate(44,129)"/>
<path d="M0 0 C1.65 0 3.3 0 5 0 C5 0.66 5 1.32 5 2 C6.32 2 7.64 2 9 2 C9 2.66 9 3.32 9 4 C10.32 4 11.64 4 13 4 C13 4.66 13 5.32 13 6 C14.32 6 15.64 6 17 6 C17 6.66 17 7.32 17 8 C14.03 7.67 11.06 7.34 8 7 C8 6.34 8 5.68 8 5 C6.68 5 5.36 5 4 5 C4 4.34 4 3.68 4 3 C2.68 3 1.36 3 0 3 C0 2.01 0 1.02 0 0 Z " fill="#232323" transform="translate(185,18)"/>
<path d="M0 0 C0.99 0 1.98 0 3 0 C3 0.66 3 1.32 3 2 C4.65 1.67 6.3 1.34 8 1 C8 1.99 8 2.98 8 4 C6.68 3.67 5.36 3.34 4 3 C4 3.66 4 4.32 4 5 C4.99 5.33 5.98 5.66 7 6 C6.67 6.99 6.34 7.98 6 9 C5.01 8.67 4.02 8.34 3 8 C3 7.34 3 6.68 3 6 C2.34 6 1.68 6 1 6 C1 6.66 1 7.32 1 8 C0.34 8 -0.32 8 -1 8 C-0.67 5.36 -0.34 2.72 0 0 Z " fill="#15150E" transform="translate(99,157)"/>
<path d="M0 0 C0.66 0 1.32 0 2 0 C2 0.66 2 1.32 2 2 C2.66 2 3.32 2 4 2 C4 2.66 4 3.32 4 4 C4.66 4 5.32 4 6 4 C6 4.66 6 5.32 6 6 C6.66 6 7.32 6 8 6 C8 7.98 8 9.96 8 12 C7.01 11.67 6.02 11.34 5 11 C5 10.34 5 9.68 5 9 C4.34 9 3.68 9 3 9 C3 7.68 3 6.36 3 5 C1.68 4.67 0.36 4.34 -1 4 C-0.67 2.68 -0.34 1.36 0 0 Z " fill="#1B1B1A" transform="translate(240,56)"/>
<path d="M0 0 C4.95 0 9.9 0 15 0 C15 0.99 15 1.98 15 3 C10.05 3 5.1 3 0 3 C0 2.01 0 1.02 0 0 Z " fill="#26271F" transform="translate(153,144)"/>
<path d="M0 0 C0.99 0 1.98 0 3 0 C3 0.99 3 1.98 3 3 C-0.33333333 6 -0.33333333 6 -3 6 C-3 6.66 -3 7.32 -3 8 C-3.66 8 -4.32 8 -5 8 C-5.309375 8.61875 -5.61875 9.2375 -5.9375 9.875 C-6.625 11.25 -7.3125 12.625 -8 14 C-8.99 14 -9.98 14 -11 14 C-9.29155827 9.137512 -7.37618896 7.08129133 -3.375 3.9375 C-0.93968019 2.22133095 -0.93968019 2.22133095 0 0 Z " fill="#171715" transform="translate(237,226)"/>
<path d="M0 0 C2.64 0 5.28 0 8 0 C8 0.66 8 1.32 8 2 C9.65 2 11.3 2 13 2 C13 2.99 13 3.98 13 5 C11.02 5 9.04 5 7 5 C7 4.34 7 3.68 7 3 C4.69 3 2.38 3 0 3 C0 2.01 0 1.02 0 0 Z " fill="#252525" transform="translate(171,14)"/>
<path d="M0 0 C0.66 0 1.32 0 2 0 C2 0.66 2 1.32 2 2 C2.99 2.33 3.98 2.66 5 3 C5 4.32 5 5.64 5 7 C-0.75 10 -0.75 10 -3 10 C-2.34 8.02 -1.68 6.04 -1 4 C-0.34 4 0.32 4 1 4 C0.67 2.68 0.34 1.36 0 0 Z " fill="#111110" transform="translate(220,237)"/>
<path d="M0 0 C0.66 0 1.32 0 2 0 C2 0.66 2 1.32 2 2 C2.99 2 3.98 2 5 2 C4.67 3.65 4.34 5.3 4 7 C3.01 7.33 2.02 7.66 1 8 C1 7.34 1 6.68 1 6 C0.01 6 -0.98 6 -2 6 C-1.34 4.02 -0.68 2.04 0 0 Z M-4 6 C-3.34 6 -2.68 6 -2 6 C-2 6.66 -2 7.32 -2 8 C-2.66 8 -3.32 8 -4 8 C-4 7.34 -4 6.68 -4 6 Z " fill="#151612" transform="translate(118,34)"/>
<path d="M0 0 C1.98 0.66 3.96 1.32 6 2 C5.34 3.65 4.68 5.3 4 7 C2.02 6.34 0.04 5.68 -2 5 C-2 4.01 -2 3.02 -2 2 C-1.34 2 -0.68 2 0 2 C0 1.34 0 0.68 0 0 Z " fill="#11110F" transform="translate(172,235)"/>
<path d="M0 0 C1.65 0 3.3 0 5 0 C5 2.31 5 4.62 5 7 C3.02 7 1.04 7 -1 7 C-0.67 4.69 -0.34 2.38 0 0 Z " fill="#D5D3B5" transform="translate(122,120)"/>
<path d="M0 0 C0.66 0 1.32 0 2 0 C2 0.66 2 1.32 2 2 C2.99 2 3.98 2 5 2 C5 2.66 5 3.32 5 4 C6.32 4.33 7.64 4.66 9 5 C8.67 6.32 8.34 7.64 8 9 C5.37812506 7.95125002 4.20628639 7.35068687 2.75 4.875 C2.5025 4.25625 2.255 3.6375 2 3 C1.34 3 0.68 3 0 3 C0 2.01 0 1.02 0 0 Z " fill="#161811" transform="translate(111,81)"/>
<path d="M0 0 C1.32 0 2.64 0 4 0 C4 0.66 4 1.32 4 2 C5.32 2.33 6.64 2.66 8 3 C7.67 4.32 7.34 5.64 7 7 C3.59687262 5.94124926 0.98646769 4.99097846 -2 3 C-1.34 2.01 -0.68 1.02 0 0 Z " fill="#101108" transform="translate(113,25)"/>
<path d="M0 0 C0.66 0 1.32 0 2 0 C2 3.96 2 7.92 2 12 C1.01 12 0.02 12 -1 12 C-1.02698189 10.37509046 -1.04638757 8.75005367 -1.0625 7.125 C-1.07410156 6.22007812 -1.08570312 5.31515625 -1.09765625 4.3828125 C-1 2 -1 2 0 0 Z " fill="#18190E" transform="translate(101,166)"/>
<path d="M0 0 C-0.54074373 3.78520613 -2.07572746 5.59177555 -5 8 C-5.99 8 -6.98 8 -8 8 C-7.65978036 4.82461668 -6.97533396 3.97723135 -4.5625 1.75 C-2 0 -2 0 0 0 Z " fill="#14140F" transform="translate(147,189)"/>
<path d="M0 0 C0.66 0 1.32 0 2 0 C3.28317892 3.84953676 3.06643637 6.94738135 3 11 C1.68 11.33 0.36 11.66 -1 12 C-0.67 8.04 -0.34 4.08 0 0 Z " fill="#18180B" transform="translate(150,168)"/>
<path d="M0 0 C1.79240663 0.11389875 3.58394835 0.24147687 5.375 0.375 C6.87160156 0.47941406 6.87160156 0.47941406 8.3984375 0.5859375 C11 1 11 1 13 3 C9.19044361 4.90477819 5.59283679 4.17565535 1.625 3 C0.75875 2.67 -0.1075 2.34 -1 2 C-0.67 1.34 -0.34 0.68 0 0 Z " fill="#1E1E1E" transform="translate(156,11)"/>
<path d="M0 0 C0.66 0 1.32 0 2 0 C2.05422947 1.4370809 2.09289723 2.87475462 2.125 4.3125 C2.14820312 5.11300781 2.17140625 5.91351563 2.1953125 6.73828125 C2 9 2 9 0 12 C-0.66 12 -1.32 12 -2 12 C-2 12.66 -2 13.32 -2 14 C-3.32 13.67 -4.64 13.34 -6 13 C-5.34 13 -4.68 13 -4 13 C-4 12.34 -4 11.68 -4 11 C-3.01 11 -2.02 11 -1 11 C-0.67 7.37 -0.34 3.74 0 0 Z " fill="#18160B" transform="translate(119,130)"/>
<path d="M0 0 C1.32 0.33 2.64 0.66 4 1 C4 2.65 4 4.3 4 6 C3.01 5.67 2.02 5.34 1 5 C0.67 3.35 0.34 1.7 0 0 Z M-3 2 C-2.01 2.495 -2.01 2.495 -1 3 C-1 3.66 -1 4.32 -1 5 C-0.34 5 0.32 5 1 5 C0.67 5.99 0.34 6.98 0 8 C-0.66 8 -1.32 8 -2 8 C-2.33 6.02 -2.66 4.04 -3 2 Z " fill="#0F0F0D" transform="translate(193,241)"/>
<path d="M0 0 C0.99 0 1.98 0 3 0 C3 0.66 3 1.32 3 2 C4.32 2.33 5.64 2.66 7 3 C7.33 4.32 7.66 5.64 8 7 C7.34 7 6.68 7 6 7 C6 6.34 6 5.68 6 5 C4.02 5 2.04 5 0 5 C0 3.35 0 1.7 0 0 Z " fill="#11120D" transform="translate(91,226)"/>
<path d="M0 0 C2.875 0.625 2.875 0.625 6 2 C7.375 5.125 7.375 5.125 8 8 C6.35 7.67 4.7 7.34 3 7 C3 6.34 3 5.68 3 5 C2.34 5 1.68 5 1 5 C0.67 3.35 0.34 1.7 0 0 Z " fill="#0D0D0C" transform="translate(42,225)"/>
<path d="M0 0 C0.99 0.495 0.99 0.495 2 1 C1.01 1.495 1.01 1.495 0 2 C0 1.34 0 0.68 0 0 Z M-1 2 C1 4 1 4 2 6.0625 C2.84589942 8.16865601 2.84589942 8.16865601 5 9 C5 9.66 5 10.32 5 11 C3.35 11 1.7 11 0 11 C0 10.01 0 9.02 0 8 C-0.66 8 -1.32 8 -2 8 C-2.042721 6.33388095 -2.04063832 4.66617115 -2 3 C-1.67 2.67 -1.34 2.34 -1 2 Z " fill="#0E0D09" transform="translate(199,222)"/>
<path d="M0 0 C0.66 0 1.32 0 2 0 C1.67 1.65 1.34 3.3 1 5 C-0.98 5.33 -2.96 5.66 -5 6 C-5 6.99 -5 7.98 -5 9 C-5.66 8.67 -6.32 8.34 -7 8 C-6.67 7.34 -6.34 6.68 -6 6 C-6.99 5.67 -7.98 5.34 -9 5 C-7.35 4.67 -5.7 4.34 -4 4 C-4 3.34 -4 2.68 -4 2 C-2.68 2 -1.36 2 0 2 C0 1.34 0 0.68 0 0 Z " fill="#141413" transform="translate(74,28)"/>
<path d="M0 0 C2.31 0 4.62 0 7 0 C7 0.66 7 1.32 7 2 C6.34 2 5.68 2 5 2 C5 2.66 5 3.32 5 4 C3.02 4.66 1.04 5.32 -1 6 C-0.67 4.02 -0.34 2.04 0 0 Z " fill="#121211" transform="translate(167,109)"/>
<path d="M0 0 C3.3 0.33 6.6 0.66 10 1 C10 1.66 10 2.32 10 3 C10.99 3 11.98 3 13 3 C13 3.66 13 4.32 13 5 C8.02693484 4.50269348 4.36200187 3.44697666 0 1 C0 0.67 0 0.34 0 0 Z " fill="#1D1D1D" transform="translate(196,25)"/>
<path d="M0 0 C0.99 0.33 1.98 0.66 3 1 C2.67 4.3 2.34 7.6 2 11 C1.34 11 0.68 11 0 11 C0 7.37 0 3.74 0 0 Z " fill="#262416" transform="translate(119,119)"/>
<path d="M0 0 C0.99 0.33 1.98 0.66 3 1 C2.67 2.65 2.34 4.3 2 6 C1.34 6 0.68 6 0 6 C0 5.34 0 4.68 0 4 C-0.45375 4.495 -0.9075 4.99 -1.375 5.5 C-3 7 -3 7 -5 7 C-5.33 6.01 -5.66 5.02 -6 4 C-4.02 3.67 -2.04 3.34 0 3 C0 2.01 0 1.02 0 0 Z " fill="#10120D" transform="translate(105,231)"/>
<path d="M0 0 C0 0.66 0 1.32 0 2 C-2.97 2 -5.94 2 -9 2 C-8.67 1.01 -8.34 0.02 -8 -1 C-4.71293093 -2.47351372 -2.99288606 -1.8171094 0 0 Z " fill="#302E12" transform="translate(128,140)"/>
<path d="M0 0 C1.32 0.33 2.64 0.66 4 1 C2.19489116 3.09012603 0.9974669 4.00096499 -1.625 5 C-2.800625 5.495 -2.800625 5.495 -4 6 C-4.33 6.99 -4.66 7.98 -5 9 C-5.33 8.01 -5.66 7.02 -6 6 C-4.68 5.34 -3.36 4.68 -2 4 C-2 3.34 -2 2.68 -2 2 C-1.34 2 -0.68 2 0 2 C0 1.34 0 0.68 0 0 Z " fill="#1A1A1A" transform="translate(45,51)"/>
<path d="M0 0 C3.3 0 6.6 0 10 0 C9.67 0.99 9.34 1.98 9 3 C2.25 3.125 2.25 3.125 0 2 C0 1.34 0 0.68 0 0 Z " fill="#1F1F24" transform="translate(112,12)"/>
<path d="M0 0 C0.66 0 1.32 0 2 0 C2 1.98 2 3.96 2 6 C0.35 6.33 -1.3 6.66 -3 7 C-3.33 5.68 -3.66 4.36 -4 3 C-2.68 2.67 -1.36 2.34 0 2 C0 1.34 0 0.68 0 0 Z " fill="#0F0F0E" transform="translate(237,208)"/>
<path d="M0 0 C3.375 -0.125 3.375 -0.125 7 0 C7.66 0.66 8.32 1.32 9 2 C6.04335481 3.4783226 3.25770263 3.06032783 0 3 C0 2.01 0 1.02 0 0 Z " fill="#1C1C1C" transform="translate(157,268)"/>
<path d="M0 0 C0.99 0 1.98 0 3 0 C3 1.98 3 3.96 3 6 C1.68 6 0.36 6 -1 6 C-1.042721 4.33388095 -1.04063832 2.66617115 -1 1 C-0.67 0.67 -0.34 0.34 0 0 Z " fill="#11110F" transform="translate(123,223)"/>
<path d="M0 0 C1.32 0.33 2.64 0.66 4 1 C4 1.66 4 2.32 4 3 C3.01 3.33 2.02 3.66 1 4 C0.67 5.65 0.34 7.3 0 9 C-0.33 8.34 -0.66 7.68 -1 7 C-1.66 7 -2.32 7 -3 7 C-2.690625 6.401875 -2.38125 5.80375 -2.0625 5.1875 C-0.89790296 2.91043228 -0.89790296 2.91043228 0 0 Z " fill="#0E0E0C" transform="translate(67,221)"/>
<path d="M0 0 C0 0.99 0 1.98 0 3 C-0.99 3 -1.98 3 -3 3 C-3 5.31 -3 7.62 -3 10 C-4.85776765 6.86501708 -5.20140476 4.62528568 -5 1 C-3 0 -3 0 0 0 Z " fill="#120E09" transform="translate(155,103)"/>
<path d="M0 0 C0.66 0 1.32 0 2 0 C2 0.66 2 1.32 2 2 C2.66 2 3.32 2 4 2 C4 4.31 4 6.62 4 9 C3.67 7.68 3.34 6.36 3 5 C1.68 4.67 0.36 4.34 -1 4 C-0.67 2.68 -0.34 1.36 0 0 Z " fill="#151511" transform="translate(240,56)"/>
<path d="M0 0 C0.99 0.33 1.98 0.66 3 1 C3 1.66 3 2.32 3 3 C3.66 3 4.32 3 5 3 C5 3.66 5 4.32 5 5 C5.66 5 6.32 5 7 5 C7 5.66 7 6.32 7 7 C5.35 6.67 3.7 6.34 2 6 C2 5.34 2 4.68 2 4 C1.34 4 0.68 4 0 4 C0 2.68 0 1.36 0 0 Z " fill="#161614" transform="translate(222,38)"/>
<path d="M0 0 C0.99 0.33 1.98 0.66 3 1 C3 2.65 3 4.3 3 6 C3.99 6.33 4.98 6.66 6 7 C6 7.66 6 8.32 6 9 C4.68 8.67 3.36 8.34 2 8 C1.87625 7.030625 1.7525 6.06125 1.625 5.0625 C1.41875 4.051875 1.2125 3.04125 1 2 C0.34 1.67 -0.32 1.34 -1 1 C-0.67 0.67 -0.34 0.34 0 0 Z " fill="#10100E" transform="translate(31,209)"/>
<path d="M0 0 C0.66 0 1.32 0 2 0 C2.625 1.875 2.625 1.875 3 4 C2.34 4.66 1.68 5.32 1 6 C-0.32 6 -1.64 6 -3 6 C-1.125 1.125 -1.125 1.125 0 0 Z " fill="#10100E" transform="translate(119,195)"/>
<path d="M0 0 C0.66 0 1.32 0 2 0 C2 0.66 2 1.32 2 2 C2.99 2.33 3.98 2.66 5 3 C4.34 3 3.68 3 3 3 C3 3.66 3 4.32 3 5 C2.01 5.33 1.02 5.66 0 6 C0 5.34 0 4.68 0 4 C-0.99 4 -1.98 4 -3 4 C-3 3.34 -3 2.68 -3 2 C-2.01 2 -1.02 2 0 2 C0 1.34 0 0.68 0 0 Z " fill="#28281F" transform="translate(113,144)"/>
<path d="M0 0 C2.97 0 5.94 0 9 0 C6 3 6 3 3.3125 3.1875 C2.1678125 3.0946875 2.1678125 3.0946875 1 3 C0.67 2.01 0.34 1.02 0 0 Z " fill="#1B1B17" transform="translate(134,143)"/>
<path d="M0 0 C0.33 0.66 0.66 1.32 1 2 C-0.32 3.32 -1.64 4.64 -3 6 C-3.99 5.01 -4.98 4.02 -6 3 C-5.67 2.34 -5.34 1.68 -5 1 C-2.4375 0.375 -2.4375 0.375 0 0 Z " fill="#0D0D0A" transform="translate(247,162)"/>
<path d="M0 0 C1.65 0.33 3.3 0.66 5 1 C4.67 1.66 4.34 2.32 4 3 C3.34 3 2.68 3 2 3 C2 3.66 2 4.32 2 5 C1.01 5 0.02 5 -1 5 C-0.67 3.35 -0.34 1.7 0 0 Z " fill="#151410" transform="translate(135,189)"/>
<path d="M0 0 C0.66 0 1.32 0 2 0 C1.75 2.375 1.75 2.375 1 5 C-1.0625 6.3125 -1.0625 6.3125 -3 7 C-3.33 6.01 -3.66 5.02 -4 4 C-3.01 3.67 -2.02 3.34 -1 3 C-0.67 2.01 -0.34 1.02 0 0 Z " fill="#0C0C0B" transform="translate(201,43)"/>
<path d="M0 0 C1.65 0 3.3 0 5 0 C5.33 1.32 5.66 2.64 6 4 C5.01 4.33 4.02 4.66 3 5 C3 4.34 3 3.68 3 3 C2.01 2.67 1.02 2.34 0 2 C0 1.34 0 0.68 0 0 Z " fill="#101109" transform="translate(105,27)"/>
<path d="M0 0 C1.32 0 2.64 0 4 0 C4 0.66 4 1.32 4 2 C5.32 2 6.64 2 8 2 C8 2.66 8 3.32 8 4 C5.36 3.67 2.72 3.34 0 3 C0 2.01 0 1.02 0 0 Z " fill="#2B2B2B" transform="translate(194,22)"/>
<path d="M0 0 C0.33 0.99 0.66 1.98 1 3 C-0.25 5.1875 -0.25 5.1875 -2 7 C-2.99 7 -3.98 7 -5 7 C-3.75023244 3.34683329 -3.32901247 2.21934164 0 0 Z " fill="#11110F" transform="translate(231,233)"/>
<path d="M0 0 C0.66 0 1.32 0 2 0 C2 1.32 2 2.64 2 4 C2.66 4 3.32 4 4 4 C4 5.32 4 6.64 4 8 C3.01 7.67 2.02 7.34 1 7 C0.67 4.69 0.34 2.38 0 0 Z " fill="#0F0F0F" transform="translate(251,72)"/>
<path d="M0 0 C0 0.66 0 1.32 0 2 C-1.32 2 -2.64 2 -4 2 C-4 2.66 -4 3.32 -4 4 C-4.99 4 -5.98 4 -7 4 C-7 3.01 -7 2.02 -7 1 C-3.375 -1.125 -3.375 -1.125 0 0 Z " fill="#11120D" transform="translate(96,36)"/>
<path d="M0 0 C0.99 0.33 1.98 0.66 3 1 C1.35 2.65 -0.3 4.3 -2 6 C-2.66 5.67 -3.32 5.34 -4 5 C-4 4.34 -4 3.68 -4 3 C-3.01 3 -2.02 3 -1 3 C-0.67 2.01 -0.34 1.02 0 0 Z " fill="#0D0E09" transform="translate(165,25)"/>
<path d="M0 0 C2.31 0.33 4.62 0.66 7 1 C6.67 1.66 6.34 2.32 6 3 C4.02 3 2.04 3 0 3 C0 2.01 0 1.02 0 0 Z " fill="#111110" transform="translate(117,255)"/>
<path d="M0 0 C2.475 0.495 2.475 0.495 5 1 C4.01 2.98 3.02 4.96 2 7 C1.34 7 0.68 7 0 7 C0 4.69 0 2.38 0 0 Z " fill="#0E0D03" transform="translate(148,178)"/>
<path d="M0 0 C-1.04874998 2.62187494 -1.64931313 3.79371361 -4.125 5.25 C-4.74375 5.4975 -5.3625 5.745 -6 6 C-6 5.01 -6 4.02 -6 3 C-5.34 3 -4.68 3 -4 3 C-4 2.34 -4 1.68 -4 1 C-2 0 -2 0 0 0 Z " fill="#0E0E0C" transform="translate(57,65)"/>
<path d="M0 0 C1.32 0.33 2.64 0.66 4 1 C3.4375 2.9375 3.4375 2.9375 2 5 C-1.625 5.75 -1.625 5.75 -5 6 C-5 5.34 -5 4.68 -5 4 C-3.02 4 -1.04 4 1 4 C0.67 2.68 0.34 1.36 0 0 Z " fill="#0C0C10" transform="translate(110,13)"/>
<path d="M0 0 C0.66 0 1.32 0 2 0 C1.67 0.66 1.34 1.32 1 2 C0.67 1.34 0.34 0.68 0 0 Z M-4 1 C-2.02 1.495 -2.02 1.495 0 2 C-0.99 3.485 -0.99 3.485 -2 5 C-2.99 4.67 -3.98 4.34 -5 4 C-4.67 3.01 -4.34 2.02 -4 1 Z " fill="#10100D" transform="translate(85,217)"/>
<path d="M0 0 C2.475 0.495 2.475 0.495 5 1 C5 2.32 5 3.64 5 5 C4.01 5 3.02 5 2 5 C2 4.01 2 3.02 2 2 C1.34 2 0.68 2 0 2 C0 1.34 0 0.68 0 0 Z " fill="#0D0D09" transform="translate(260,94)"/>
<path d="M0 0 C1.32 0.33 2.64 0.66 4 1 C3.67 2.65 3.34 4.3 3 6 C1.5 4.6875 1.5 4.6875 0 3 C0 2.01 0 1.02 0 0 Z " fill="#13140B" transform="translate(163,85)"/>
<path d="M0 0 C0.66 0 1.32 0 2 0 C1.67 2.31 1.34 4.62 1 7 C0.34 7 -0.32 7 -1 7 C-0.67 4.69 -0.34 2.38 0 0 Z " fill="#11100E" transform="translate(81,48)"/>
<path d="M0 0 C0.66 0 1.32 0 2 0 C2 0.66 2 1.32 2 2 C2.99 2 3.98 2 5 2 C4.67 3.32 4.34 4.64 4 6 C4 5.01 4 4.02 4 3 C2.35 3.33 0.7 3.66 -1 4 C-0.67 2.68 -0.34 1.36 0 0 Z " fill="#0F100C" transform="translate(118,34)"/>
</svg>
